<svg xmlns="http://www.w3.org/2000/svg" width="360" height="310" viewBox="0 0 36 31" shape-rendering="crispEdges">
<rect x="3" y="0" width="4" height="1" fill="#7c4d2f"/>
<rect x="7" y="0" width="1" height="1" fill="#4c3d3b"/>
<rect x="27" y="0" width="1" height="1" fill="#2d1d14"/>
<rect x="28" y="0" width="3" height="1" fill="#7c4d2f"/>
<rect x="31" y="0" width="1" height="1" fill="#4c3d3b"/>
<rect x="2" y="1" width="1" height="1" fill="#4c3d3b"/>
<rect x="3" y="1" width="1" height="1" fill="#2d1d14"/>
<rect x="4" y="1" width="1" height="1" fill="#fae8bf"/>
<rect x="5" y="1" width="1" height="1" fill="#ea9f55"/>
<rect x="6" y="1" width="1" height="1" fill="#ebb053"/>
<rect x="7" y="1" width="1" height="1" fill="#b77e40"/>
<rect x="8" y="1" width="1" height="1" fill="#2d1d14"/>
<rect x="12" y="1" width="1" height="1" fill="#2d1d14"/>
<rect x="13" y="1" width="10" height="1" fill="#0b0502"/>
<rect x="26" y="1" width="1" height="1" fill="#2d1d14"/>
<rect x="27" y="1" width="1" height="1" fill="#7c4d2f"/>
<rect x="28" y="1" width="1" height="1" fill="#ebb053"/>
<rect x="29" y="1" width="1" height="1" fill="#ea9f55"/>
<rect x="30" y="1" width="1" height="1" fill="#ebb053"/>
<rect x="31" y="1" width="1" height="1" fill="#915d36"/>
<rect x="32" y="1" width="1" height="1" fill="#2d1d14"/>
<rect x="2" y="2" width="1" height="1" fill="#2d1d14"/>
<rect x="3" y="2" width="1" height="1" fill="#915d36"/>
<rect x="4" y="2" width="2" height="1" fill="#7c4d2f"/>
<rect x="6" y="2" width="1" height="1" fill="#e29b54"/>
<rect x="7" y="2" width="2" height="1" fill="#ea9f55"/>
<rect x="9" y="2" width="3" height="1" fill="#2d1d14"/>
<rect x="12" y="2" width="1" height="1" fill="#7c4d2f"/>
<rect x="13" y="2" width="8" height="1" fill="#b77e40"/>
<rect x="21" y="2" width="2" height="1" fill="#915d36"/>
<rect x="23" y="2" width="1" height="1" fill="#2d1d14"/>
<rect x="24" y="2" width="2" height="1" fill="#0b0502"/>
<rect x="26" y="2" width="1" height="1" fill="#7c4d2f"/>
<rect x="27" y="2" width="1" height="1" fill="#e29b54"/>
<rect x="28" y="2" width="1" height="1" fill="#ea9f55"/>
<rect x="29" y="2" width="2" height="1" fill="#7c4d2f"/>
<rect x="31" y="2" width="1" height="1" fill="#915d36"/>
<rect x="32" y="2" width="1" height="1" fill="#4c3d3b"/>
<rect x="33" y="2" width="1" height="1" fill="#0b0502"/>
<rect x="2" y="3" width="1" height="1" fill="#2d1d14"/>
<rect x="3" y="3" width="1" height="1" fill="#915d36"/>
<rect x="4" y="3" width="3" height="1" fill="#7c4d2f"/>
<rect x="7" y="3" width="1" height="1" fill="#b77e40"/>
<rect x="8" y="3" width="1" height="1" fill="#ea9f55"/>
<rect x="9" y="3" width="2" height="1" fill="#7c4d2f"/>
<rect x="11" y="3" width="1" height="1" fill="#915d36"/>
<rect x="12" y="3" width="1" height="1" fill="#e29b54"/>
<rect x="13" y="3" width="1" height="1" fill="#ebb053"/>
<rect x="14" y="3" width="6" height="1" fill="#fae8bf"/>
<rect x="20" y="3" width="1" height="1" fill="#ebb053"/>
<rect x="21" y="3" width="2" height="1" fill="#ea9f55"/>
<rect x="23" y="3" width="1" height="1" fill="#b77e40"/>
<rect x="24" y="3" width="1" height="1" fill="#7c4d2f"/>
<rect x="25" y="3" width="1" height="1" fill="#4c3d3b"/>
<rect x="26" y="3" width="1" height="1" fill="#915d36"/>
<rect x="27" y="3" width="1" height="1" fill="#e29b54"/>
<rect x="28" y="3" width="1" height="1" fill="#915d36"/>
<rect x="29" y="3" width="2" height="1" fill="#7c4d2f"/>
<rect x="31" y="3" width="1" height="1" fill="#915d36"/>
<rect x="32" y="3" width="1" height="1" fill="#4c3d3b"/>
<rect x="33" y="3" width="1" height="1" fill="#0b0502"/>
<rect x="2" y="4" width="1" height="1" fill="#2d1d14"/>
<rect x="3" y="4" width="2" height="1" fill="#915d36"/>
<rect x="5" y="4" width="1" height="1" fill="#7c4d2f"/>
<rect x="6" y="4" width="1" height="1" fill="#0b0502"/>
<rect x="7" y="4" width="1" height="1" fill="#7c4d2f"/>
<rect x="8" y="4" width="1" height="1" fill="#ea9f55"/>
<rect x="9" y="4" width="1" height="1" fill="#b77e40"/>
<rect x="10" y="4" width="1" height="1" fill="#e29b54"/>
<rect x="11" y="4" width="1" height="1" fill="#ebb053"/>
<rect x="12" y="4" width="13" height="1" fill="#ea9f55"/>
<rect x="25" y="4" width="1" height="1" fill="#c15a2e"/>
<rect x="26" y="4" width="2" height="1" fill="#b77e40"/>
<rect x="28" y="4" width="1" height="1" fill="#0b0502"/>
<rect x="29" y="4" width="1" height="1" fill="#4c3d3b"/>
<rect x="30" y="4" width="2" height="1" fill="#915d36"/>
<rect x="32" y="4" width="1" height="1" fill="#4c3d3b"/>
<rect x="33" y="4" width="1" height="1" fill="#0b0502"/>
<rect x="2" y="5" width="1" height="1" fill="#0b0502"/>
<rect x="3" y="5" width="1" height="1" fill="#2d1d14"/>
<rect x="4" y="5" width="1" height="1" fill="#915d36"/>
<rect x="5" y="5" width="1" height="1" fill="#7c4d2f"/>
<rect x="6" y="5" width="1" height="1" fill="#2d1d14"/>
<rect x="7" y="5" width="1" height="1" fill="#4c3d3b"/>
<rect x="8" y="5" width="1" height="1" fill="#915d36"/>
<rect x="9" y="5" width="1" height="1" fill="#e29b54"/>
<rect x="10" y="5" width="3" height="1" fill="#ea9f55"/>
<rect x="13" y="5" width="9" height="1" fill="#e29b54"/>
<rect x="22" y="5" width="3" height="1" fill="#ea9f55"/>
<rect x="25" y="5" width="1" height="1" fill="#b77e40"/>
<rect x="26" y="5" width="1" height="1" fill="#c15a2e"/>
<rect x="27" y="5" width="1" height="1" fill="#915d36"/>
<rect x="28" y="5" width="1" height="1" fill="#0b0502"/>
<rect x="29" y="5" width="1" height="1" fill="#7c4d2f"/>
<rect x="30" y="5" width="2" height="1" fill="#915d36"/>
<rect x="32" y="5" width="1" height="1" fill="#4c3d3b"/>
<rect x="33" y="5" width="1" height="1" fill="#2d1d14"/>
<rect x="0" y="6" width="1" height="1" fill="#7c4d2f"/>
<rect x="1" y="6" width="1" height="1" fill="#2d1d14"/>
<rect x="2" y="6" width="7" height="1" fill="#000000"/>
<rect x="9" y="6" width="19" height="1" fill="#0b0502"/>
<rect x="28" y="6" width="1" height="1" fill="#000000"/>
<rect x="29" y="6" width="3" height="1" fill="#2d1d14"/>
<rect x="32" y="6" width="2" height="1" fill="#0b0502"/>
<rect x="34" y="6" width="1" height="1" fill="#2d1d14"/>
<rect x="0" y="7" width="1" height="1" fill="#2d1d14"/>
<rect x="1" y="7" width="1" height="1" fill="#000000"/>
<rect x="2" y="7" width="3" height="1" fill="#4c3d3b"/>
<rect x="5" y="7" width="1" height="1" fill="#2d1d14"/>
<rect x="6" y="7" width="4" height="1" fill="#4c3d3b"/>
<rect x="10" y="7" width="1" height="1" fill="#2d1d14"/>
<rect x="11" y="7" width="9" height="1" fill="#000000"/>
<rect x="20" y="7" width="1" height="1" fill="#0b0502"/>
<rect x="21" y="7" width="3" height="1" fill="#2d1d14"/>
<rect x="24" y="7" width="3" height="1" fill="#4c3d3b"/>
<rect x="27" y="7" width="4" height="1" fill="#000000"/>
<rect x="31" y="7" width="1" height="1" fill="#0b0502"/>
<rect x="32" y="7" width="1" height="1" fill="#2d1d14"/>
<rect x="33" y="7" width="1" height="1" fill="#0b0502"/>
<rect x="34" y="7" width="1" height="1" fill="#000000"/>
<rect x="35" y="7" width="1" height="1" fill="#4c3d3b"/>
<rect x="0" y="8" width="1" height="1" fill="#2d1d14"/>
<rect x="1" y="8" width="1" height="1" fill="#000000"/>
<rect x="2" y="8" width="8" height="1" fill="#4c3d3b"/>
<rect x="10" y="8" width="1" height="1" fill="#2d1d14"/>
<rect x="11" y="8" width="9" height="1" fill="#000000"/>
<rect x="20" y="8" width="7" height="1" fill="#4c3d3b"/>
<rect x="27" y="8" width="4" height="1" fill="#000000"/>
<rect x="31" y="8" width="1" height="1" fill="#2d1d14"/>
<rect x="32" y="8" width="1" height="1" fill="#4c3d3b"/>
<rect x="33" y="8" width="1" height="1" fill="#2d1d14"/>
<rect x="34" y="8" width="1" height="1" fill="#000000"/>
<rect x="35" y="8" width="1" height="1" fill="#4c3d3b"/>
<rect x="0" y="9" width="1" height="1" fill="#2d1d14"/>
<rect x="1" y="9" width="1" height="1" fill="#000000"/>
<rect x="2" y="9" width="1" height="1" fill="#0b0502"/>
<rect x="3" y="9" width="1" height="1" fill="#2d1d14"/>
<rect x="4" y="9" width="4" height="1" fill="#4c3d3b"/>
<rect x="8" y="9" width="1" height="1" fill="#0b0502"/>
<rect x="9" y="9" width="3" height="1" fill="#000000"/>
<rect x="12" y="9" width="1" height="1" fill="#0b0502"/>
<rect x="13" y="9" width="1" height="1" fill="#4c3d3b"/>
<rect x="14" y="9" width="3" height="1" fill="#b77e40"/>
<rect x="17" y="9" width="1" height="1" fill="#915d36"/>
<rect x="18" y="9" width="1" height="1" fill="#2d1d14"/>
<rect x="19" y="9" width="1" height="1" fill="#000000"/>
<rect x="20" y="9" width="1" height="1" fill="#2d1d14"/>
<rect x="21" y="9" width="4" height="1" fill="#4c3d3b"/>
<rect x="25" y="9" width="9" height="1" fill="#000000"/>
<rect x="34" y="9" width="1" height="1" fill="#0b0502"/>
<rect x="1" y="10" width="1" height="1" fill="#2d1d14"/>
<rect x="2" y="10" width="1" height="1" fill="#000000"/>
<rect x="3" y="10" width="1" height="1" fill="#2d1d14"/>
<rect x="4" y="10" width="2" height="1" fill="#4c3d3b"/>
<rect x="6" y="10" width="1" height="1" fill="#2d1d14"/>
<rect x="7" y="10" width="5" height="1" fill="#000000"/>
<rect x="12" y="10" width="1" height="1" fill="#7c4d2f"/>
<rect x="13" y="10" width="1" height="1" fill="#ea9f55"/>
<rect x="14" y="10" width="5" height="1" fill="#e29b54"/>
<rect x="19" y="10" width="1" height="1" fill="#0b0502"/>
<rect x="20" y="10" width="2" height="1" fill="#000000"/>
<rect x="22" y="10" width="3" height="1" fill="#4c3d3b"/>
<rect x="25" y="10" width="9" height="1" fill="#000000"/>
<rect x="34" y="10" width="1" height="1" fill="#4c3d3b"/>
<rect x="1" y="11" width="1" height="1" fill="#4c3d3b"/>
<rect x="2" y="11" width="1" height="1" fill="#000000"/>
<rect x="3" y="11" width="1" height="1" fill="#2d1d14"/>
<rect x="4" y="11" width="2" height="1" fill="#4c3d3b"/>
<rect x="6" y="11" width="1" height="1" fill="#2d1d14"/>
<rect x="7" y="11" width="4" height="1" fill="#000000"/>
<rect x="11" y="11" width="1" height="1" fill="#7c4d2f"/>
<rect x="12" y="11" width="1" height="1" fill="#b77e40"/>
<rect x="13" y="11" width="5" height="1" fill="#915d36"/>
<rect x="18" y="11" width="1" height="1" fill="#b77e40"/>
<rect x="19" y="11" width="1" height="1" fill="#915d36"/>
<rect x="20" y="11" width="1" height="1" fill="#0b0502"/>
<rect x="21" y="11" width="1" height="1" fill="#000000"/>
<rect x="22" y="11" width="1" height="1" fill="#4c3d3b"/>
<rect x="23" y="11" width="1" height="1" fill="#2d1d14"/>
<rect x="24" y="11" width="1" height="1" fill="#0b0502"/>
<rect x="25" y="11" width="8" height="1" fill="#000000"/>
<rect x="33" y="11" width="1" height="1" fill="#0b0502"/>
<rect x="2" y="12" width="1" height="1" fill="#2d1d14"/>
<rect x="3" y="12" width="7" height="1" fill="#000000"/>
<rect x="10" y="12" width="1" height="1" fill="#2d1d14"/>
<rect x="11" y="12" width="1" height="1" fill="#7c4d2f"/>
<rect x="12" y="12" width="7" height="1" fill="#915d36"/>
<rect x="19" y="12" width="1" height="1" fill="#b77e40"/>
<rect x="20" y="12" width="1" height="1" fill="#915d36"/>
<rect x="21" y="12" width="1" height="1" fill="#000000"/>
<rect x="22" y="12" width="1" height="1" fill="#4c3d3b"/>
<rect x="23" y="12" width="1" height="1" fill="#0b0502"/>
<rect x="24" y="12" width="9" height="1" fill="#000000"/>
<rect x="33" y="12" width="1" height="1" fill="#2d1d14"/>
<rect x="3" y="13" width="1" height="1" fill="#2d1d14"/>
<rect x="4" y="13" width="5" height="1" fill="#000000"/>
<rect x="9" y="13" width="1" height="1" fill="#2d1d14"/>
<rect x="10" y="13" width="3" height="1" fill="#7c4d2f"/>
<rect x="13" y="13" width="3" height="1" fill="#915d36"/>
<rect x="16" y="13" width="3" height="1" fill="#7c4d2f"/>
<rect x="19" y="13" width="2" height="1" fill="#915d36"/>
<rect x="21" y="13" width="1" height="1" fill="#b77e40"/>
<rect x="22" y="13" width="10" height="1" fill="#000000"/>
<rect x="32" y="13" width="1" height="1" fill="#2d1d14"/>
<rect x="2" y="14" width="1" height="1" fill="#2d1d14"/>
<rect x="3" y="14" width="1" height="1" fill="#b77e40"/>
<rect x="4" y="14" width="1" height="1" fill="#2d1d14"/>
<rect x="5" y="14" width="1" height="1" fill="#0b0502"/>
<rect x="6" y="14" width="2" height="1" fill="#2d1d14"/>
<rect x="8" y="14" width="1" height="1" fill="#4c3d3b"/>
<rect x="9" y="14" width="1" height="1" fill="#7c4d2f"/>
<rect x="10" y="14" width="1" height="1" fill="#915d36"/>
<rect x="11" y="14" width="1" height="1" fill="#4c3d3b"/>
<rect x="12" y="14" width="1" height="1" fill="#0b0502"/>
<rect x="13" y="14" width="1" height="1" fill="#7c4d2f"/>
<rect x="14" y="14" width="2" height="1" fill="#915d36"/>
<rect x="16" y="14" width="1" height="1" fill="#7c4d2f"/>
<rect x="17" y="14" width="1" height="1" fill="#0b0502"/>
<rect x="18" y="14" width="1" height="1" fill="#2d1d14"/>
<rect x="19" y="14" width="2" height="1" fill="#915d36"/>
<rect x="21" y="14" width="1" height="1" fill="#e29b54"/>
<rect x="22" y="14" width="1" height="1" fill="#915d36"/>
<rect x="23" y="14" width="1" height="1" fill="#4c3d3b"/>
<rect x="24" y="14" width="6" height="1" fill="#000000"/>
<rect x="30" y="14" width="1" height="1" fill="#0b0502"/>
<rect x="31" y="14" width="2" height="1" fill="#915d36"/>
<rect x="33" y="14" width="1" height="1" fill="#2d1d14"/>
<rect x="34" y="14" width="1" height="1" fill="#7c4d2f"/>
<rect x="2" y="15" width="1" height="1" fill="#0b0502"/>
<rect x="3" y="15" width="1" height="1" fill="#b77e40"/>
<rect x="4" y="15" width="2" height="1" fill="#e29b54"/>
<rect x="6" y="15" width="3" height="1" fill="#ea9f55"/>
<rect x="9" y="15" width="2" height="1" fill="#915d36"/>
<rect x="11" y="15" width="1" height="1" fill="#4c3d3b"/>
<rect x="12" y="15" width="1" height="1" fill="#0b0502"/>
<rect x="13" y="15" width="1" height="1" fill="#2d1d14"/>
<rect x="14" y="15" width="2" height="1" fill="#915d36"/>
<rect x="16" y="15" width="1" height="1" fill="#7c4d2f"/>
<rect x="17" y="15" width="1" height="1" fill="#0b0502"/>
<rect x="18" y="15" width="1" height="1" fill="#2d1d14"/>
<rect x="19" y="15" width="2" height="1" fill="#915d36"/>
<rect x="21" y="15" width="1" height="1" fill="#b77e40"/>
<rect x="22" y="15" width="1" height="1" fill="#ea9f55"/>
<rect x="23" y="15" width="1" height="1" fill="#e29b54"/>
<rect x="24" y="15" width="4" height="1" fill="#b77e40"/>
<rect x="28" y="15" width="3" height="1" fill="#e29b54"/>
<rect x="31" y="15" width="1" height="1" fill="#ea9f55"/>
<rect x="32" y="15" width="1" height="1" fill="#915d36"/>
<rect x="33" y="15" width="1" height="1" fill="#2d1d14"/>
<rect x="34" y="15" width="1" height="1" fill="#7c4d2f"/>
<rect x="1" y="16" width="1" height="1" fill="#2d1d14"/>
<rect x="2" y="16" width="1" height="1" fill="#7c4d2f"/>
<rect x="3" y="16" width="1" height="1" fill="#d97631"/>
<rect x="4" y="16" width="5" height="1" fill="#ea9f55"/>
<rect x="9" y="16" width="3" height="1" fill="#915d36"/>
<rect x="12" y="16" width="1" height="1" fill="#7c4d2f"/>
<rect x="13" y="16" width="1" height="1" fill="#4c3d3b"/>
<rect x="14" y="16" width="2" height="1" fill="#915d36"/>
<rect x="16" y="16" width="2" height="1" fill="#7c4d2f"/>
<rect x="18" y="16" width="3" height="1" fill="#915d36"/>
<rect x="21" y="16" width="1" height="1" fill="#b77e40"/>
<rect x="22" y="16" width="1" height="1" fill="#ea9f55"/>
<rect x="23" y="16" width="5" height="1" fill="#e29b54"/>
<rect x="28" y="16" width="2" height="1" fill="#ea9f55"/>
<rect x="30" y="16" width="2" height="1" fill="#ebb053"/>
<rect x="32" y="16" width="1" height="1" fill="#e29b54"/>
<rect x="33" y="16" width="1" height="1" fill="#915d36"/>
<rect x="34" y="16" width="1" height="1" fill="#4c3d3b"/>
<rect x="1" y="17" width="1" height="1" fill="#0b0502"/>
<rect x="2" y="17" width="1" height="1" fill="#b77e40"/>
<rect x="3" y="17" width="1" height="1" fill="#ea9f55"/>
<rect x="4" y="17" width="2" height="1" fill="#ebb053"/>
<rect x="6" y="17" width="3" height="1" fill="#ea9f55"/>
<rect x="9" y="17" width="12" height="1" fill="#915d36"/>
<rect x="21" y="17" width="1" height="1" fill="#b77e40"/>
<rect x="22" y="17" width="2" height="1" fill="#ea9f55"/>
<rect x="24" y="17" width="3" height="1" fill="#e29b54"/>
<rect x="27" y="17" width="2" height="1" fill="#ea9f55"/>
<rect x="29" y="17" width="4" height="1" fill="#ebb053"/>
<rect x="33" y="17" width="1" height="1" fill="#d97631"/>
<rect x="34" y="17" width="2" height="1" fill="#2d1d14"/>
<rect x="1" y="18" width="1" height="1" fill="#0b0502"/>
<rect x="2" y="18" width="1" height="1" fill="#915d36"/>
<rect x="3" y="18" width="3" height="1" fill="#ea9f55"/>
<rect x="6" y="18" width="1" height="1" fill="#e29b54"/>
<rect x="7" y="18" width="2" height="1" fill="#ea9f55"/>
<rect x="9" y="18" width="5" height="1" fill="#915d36"/>
<rect x="14" y="18" width="2" height="1" fill="#4c3d3b"/>
<rect x="16" y="18" width="5" height="1" fill="#915d36"/>
<rect x="21" y="18" width="1" height="1" fill="#b77e40"/>
<rect x="22" y="18" width="2" height="1" fill="#ea9f55"/>
<rect x="24" y="18" width="1" height="1" fill="#915d36"/>
<rect x="25" y="18" width="1" height="1" fill="#2d1d14"/>
<rect x="26" y="18" width="1" height="1" fill="#915d36"/>
<rect x="27" y="18" width="6" height="1" fill="#ea9f55"/>
<rect x="33" y="18" width="1" height="1" fill="#b77e40"/>
<rect x="34" y="18" width="2" height="1" fill="#2d1d14"/>
<rect x="1" y="19" width="1" height="1" fill="#0b0502"/>
<rect x="2" y="19" width="1" height="1" fill="#915d36"/>
<rect x="3" y="19" width="1" height="1" fill="#e29b54"/>
<rect x="4" y="19" width="1" height="1" fill="#ea9f55"/>
<rect x="5" y="19" width="1" height="1" fill="#e29b54"/>
<rect x="6" y="19" width="3" height="1" fill="#ea9f55"/>
<rect x="9" y="19" width="5" height="1" fill="#915d36"/>
<rect x="14" y="19" width="2" height="1" fill="#2d1d14"/>
<rect x="16" y="19" width="5" height="1" fill="#915d36"/>
<rect x="21" y="19" width="1" height="1" fill="#b77e40"/>
<rect x="22" y="19" width="1" height="1" fill="#ea9f55"/>
<rect x="23" y="19" width="1" height="1" fill="#b77e40"/>
<rect x="24" y="19" width="1" height="1" fill="#4c3d3b"/>
<rect x="25" y="19" width="1" height="1" fill="#2d1d14"/>
<rect x="26" y="19" width="1" height="1" fill="#7c4d2f"/>
<rect x="27" y="19" width="6" height="1" fill="#ea9f55"/>
<rect x="33" y="19" width="1" height="1" fill="#c15a2e"/>
<rect x="34" y="19" width="2" height="1" fill="#2d1d14"/>
<rect x="1" y="20" width="1" height="1" fill="#0b0502"/>
<rect x="2" y="20" width="1" height="1" fill="#915d36"/>
<rect x="3" y="20" width="1" height="1" fill="#e29b54"/>
<rect x="4" y="20" width="5" height="1" fill="#ea9f55"/>
<rect x="9" y="20" width="5" height="1" fill="#915d36"/>
<rect x="14" y="20" width="2" height="1" fill="#2d1d14"/>
<rect x="16" y="20" width="5" height="1" fill="#915d36"/>
<rect x="21" y="20" width="1" height="1" fill="#b77e40"/>
<rect x="22" y="20" width="1" height="1" fill="#ea9f55"/>
<rect x="23" y="20" width="1" height="1" fill="#915d36"/>
<rect x="24" y="20" width="1" height="1" fill="#0b0502"/>
<rect x="25" y="20" width="1" height="1" fill="#4c3d3b"/>
<rect x="26" y="20" width="6" height="1" fill="#ea9f55"/>
<rect x="32" y="20" width="1" height="1" fill="#e29b54"/>
<rect x="33" y="20" width="1" height="1" fill="#915d36"/>
<rect x="34" y="20" width="2" height="1" fill="#2d1d14"/>
<rect x="1" y="21" width="1" height="1" fill="#0b0502"/>
<rect x="2" y="21" width="1" height="1" fill="#915d36"/>
<rect x="3" y="21" width="1" height="1" fill="#b77e40"/>
<rect x="4" y="21" width="1" height="1" fill="#e29b54"/>
<rect x="5" y="21" width="4" height="1" fill="#ea9f55"/>
<rect x="9" y="21" width="1" height="1" fill="#b77e40"/>
<rect x="10" y="21" width="1" height="1" fill="#7c4d2f"/>
<rect x="11" y="21" width="3" height="1" fill="#915d36"/>
<rect x="14" y="21" width="2" height="1" fill="#2d1d14"/>
<rect x="16" y="21" width="4" height="1" fill="#915d36"/>
<rect x="20" y="21" width="1" height="1" fill="#b77e40"/>
<rect x="21" y="21" width="1" height="1" fill="#e29b54"/>
<rect x="22" y="21" width="1" height="1" fill="#b77e40"/>
<rect x="23" y="21" width="1" height="1" fill="#2d1d14"/>
<rect x="24" y="21" width="1" height="1" fill="#4c3d3b"/>
<rect x="25" y="21" width="1" height="1" fill="#e29b54"/>
<rect x="26" y="21" width="6" height="1" fill="#ea9f55"/>
<rect x="32" y="21" width="1" height="1" fill="#c15a2e"/>
<rect x="33" y="21" width="1" height="1" fill="#915d36"/>
<rect x="34" y="21" width="2" height="1" fill="#2d1d14"/>
<rect x="1" y="22" width="1" height="1" fill="#0b0502"/>
<rect x="2" y="22" width="2" height="1" fill="#915d36"/>
<rect x="4" y="22" width="1" height="1" fill="#b77e40"/>
<rect x="5" y="22" width="4" height="1" fill="#ea9f55"/>
<rect x="9" y="22" width="1" height="1" fill="#b77e40"/>
<rect x="10" y="22" width="1" height="1" fill="#2d1d14"/>
<rect x="11" y="22" width="1" height="1" fill="#4c3d3b"/>
<rect x="12" y="22" width="1" height="1" fill="#2d1d14"/>
<rect x="13" y="22" width="1" height="1" fill="#0b0502"/>
<rect x="14" y="22" width="1" height="1" fill="#2d1d14"/>
<rect x="15" y="22" width="1" height="1" fill="#4c3d3b"/>
<rect x="16" y="22" width="1" height="1" fill="#0b0502"/>
<rect x="17" y="22" width="4" height="1" fill="#7c4d2f"/>
<rect x="21" y="22" width="1" height="1" fill="#4c3d3b"/>
<rect x="22" y="22" width="2" height="1" fill="#2d1d14"/>
<rect x="24" y="22" width="7" height="1" fill="#ea9f55"/>
<rect x="31" y="22" width="1" height="1" fill="#b77e40"/>
<rect x="32" y="22" width="2" height="1" fill="#915d36"/>
<rect x="34" y="22" width="1" height="1" fill="#4c3d3b"/>
<rect x="35" y="22" width="1" height="1" fill="#2d1d14"/>
<rect x="1" y="23" width="2" height="1" fill="#2d1d14"/>
<rect x="3" y="23" width="1" height="1" fill="#7c4d2f"/>
<rect x="4" y="23" width="1" height="1" fill="#915d36"/>
<rect x="5" y="23" width="1" height="1" fill="#b77e40"/>
<rect x="6" y="23" width="4" height="1" fill="#ea9f55"/>
<rect x="10" y="23" width="1" height="1" fill="#b77e40"/>
<rect x="11" y="23" width="1" height="1" fill="#2d1d14"/>
<rect x="12" y="23" width="1" height="1" fill="#4c3d3b"/>
<rect x="13" y="23" width="1" height="1" fill="#7c4d2f"/>
<rect x="14" y="23" width="2" height="1" fill="#b77e40"/>
<rect x="16" y="23" width="1" height="1" fill="#7c4d2f"/>
<rect x="17" y="23" width="4" height="1" fill="#0b0502"/>
<rect x="21" y="23" width="1" height="1" fill="#2d1d14"/>
<rect x="22" y="23" width="1" height="1" fill="#915d36"/>
<rect x="23" y="23" width="6" height="1" fill="#ea9f55"/>
<rect x="29" y="23" width="2" height="1" fill="#e29b54"/>
<rect x="31" y="23" width="1" height="1" fill="#c15a2e"/>
<rect x="32" y="23" width="1" height="1" fill="#915d36"/>
<rect x="33" y="23" width="2" height="1" fill="#2d1d14"/>
<rect x="35" y="23" width="1" height="1" fill="#4c3d3b"/>
<rect x="2" y="24" width="1" height="1" fill="#0b0502"/>
<rect x="3" y="24" width="1" height="1" fill="#4c3d3b"/>
<rect x="4" y="24" width="2" height="1" fill="#915d36"/>
<rect x="6" y="24" width="1" height="1" fill="#c15a2e"/>
<rect x="7" y="24" width="1" height="1" fill="#e29b54"/>
<rect x="8" y="24" width="8" height="1" fill="#ea9f55"/>
<rect x="16" y="24" width="1" height="1" fill="#e29b54"/>
<rect x="17" y="24" width="4" height="1" fill="#b77e40"/>
<rect x="21" y="24" width="1" height="1" fill="#e29b54"/>
<rect x="22" y="24" width="7" height="1" fill="#ea9f55"/>
<rect x="29" y="24" width="1" height="1" fill="#915d36"/>
<rect x="30" y="24" width="1" height="1" fill="#c15a2e"/>
<rect x="31" y="24" width="2" height="1" fill="#915d36"/>
<rect x="33" y="24" width="1" height="1" fill="#2d1d14"/>
<rect x="34" y="24" width="1" height="1" fill="#4c3d3b"/>
<rect x="2" y="25" width="2" height="1" fill="#2d1d14"/>
<rect x="4" y="25" width="1" height="1" fill="#7c4d2f"/>
<rect x="5" y="25" width="2" height="1" fill="#915d36"/>
<rect x="7" y="25" width="2" height="1" fill="#e29b54"/>
<rect x="9" y="25" width="5" height="1" fill="#ea9f55"/>
<rect x="14" y="25" width="1" height="1" fill="#e29b54"/>
<rect x="15" y="25" width="11" height="1" fill="#ea9f55"/>
<rect x="26" y="25" width="3" height="1" fill="#b77e40"/>
<rect x="29" y="25" width="2" height="1" fill="#915d36"/>
<rect x="31" y="25" width="1" height="1" fill="#7c4d2f"/>
<rect x="32" y="25" width="2" height="1" fill="#2d1d14"/>
<rect x="3" y="26" width="2" height="1" fill="#2d1d14"/>
<rect x="5" y="26" width="1" height="1" fill="#7c4d2f"/>
<rect x="6" y="26" width="3" height="1" fill="#915d36"/>
<rect x="9" y="26" width="3" height="1" fill="#e29b54"/>
<rect x="12" y="26" width="1" height="1" fill="#ea9f55"/>
<rect x="13" y="26" width="2" height="1" fill="#e29b54"/>
<rect x="15" y="26" width="1" height="1" fill="#ea9f55"/>
<rect x="16" y="26" width="1" height="1" fill="#e29b54"/>
<rect x="17" y="26" width="1" height="1" fill="#ea9f55"/>
<rect x="18" y="26" width="1" height="1" fill="#e29b54"/>
<rect x="19" y="26" width="5" height="1" fill="#ea9f55"/>
<rect x="24" y="26" width="1" height="1" fill="#e29b54"/>
<rect x="25" y="26" width="1" height="1" fill="#ea9f55"/>
<rect x="26" y="26" width="1" height="1" fill="#c15a2e"/>
<rect x="27" y="26" width="3" height="1" fill="#915d36"/>
<rect x="30" y="26" width="1" height="1" fill="#7c4d2f"/>
<rect x="31" y="26" width="1" height="1" fill="#2d1d14"/>
<rect x="32" y="26" width="1" height="1" fill="#0b0502"/>
<rect x="4" y="27" width="1" height="1" fill="#7c4d2f"/>
<rect x="5" y="27" width="1" height="1" fill="#0b0502"/>
<rect x="6" y="27" width="1" height="1" fill="#7c4d2f"/>
<rect x="7" y="27" width="4" height="1" fill="#915d36"/>
<rect x="11" y="27" width="1" height="1" fill="#c15a2e"/>
<rect x="12" y="27" width="1" height="1" fill="#e29b54"/>
<rect x="13" y="27" width="1" height="1" fill="#d97631"/>
<rect x="14" y="27" width="6" height="1" fill="#ea9f55"/>
<rect x="20" y="27" width="1" height="1" fill="#e29b54"/>
<rect x="21" y="27" width="4" height="1" fill="#b77e40"/>
<rect x="25" y="27" width="3" height="1" fill="#915d36"/>
<rect x="28" y="27" width="2" height="1" fill="#7c4d2f"/>
<rect x="30" y="27" width="2" height="1" fill="#0b0502"/>
<rect x="6" y="28" width="1" height="1" fill="#2d1d14"/>
<rect x="7" y="28" width="2" height="1" fill="#0b0502"/>
<rect x="9" y="28" width="1" height="1" fill="#2d1d14"/>
<rect x="10" y="28" width="3" height="1" fill="#915d36"/>
<rect x="13" y="28" width="1" height="1" fill="#c15a2e"/>
<rect x="14" y="28" width="7" height="1" fill="#b77e40"/>
<rect x="21" y="28" width="4" height="1" fill="#915d36"/>
<rect x="25" y="28" width="3" height="1" fill="#7c4d2f"/>
<rect x="28" y="28" width="2" height="1" fill="#0b0502"/>
<rect x="30" y="28" width="1" height="1" fill="#2d1d14"/>
<rect x="7" y="29" width="3" height="1" fill="#7c4d2f"/>
<rect x="10" y="29" width="14" height="1" fill="#4c3d3b"/>
<rect x="24" y="29" width="1" height="1" fill="#2d1d14"/>
<rect x="25" y="29" width="3" height="1" fill="#0b0502"/>
<rect x="10" y="30" width="17" height="1" fill="#0b0502"/>
<rect x="27" y="30" width="1" height="1" fill="#2d1d14"/>
</svg>